<svg width="2150" height="351" viewBox="0 0 2150 351" fill="none" xmlns="http://www.w3.org/2000/svg">
<path d="M350.719 118.578C350.719 133.064 348.928 146.003 345.348 157.396C341.767 168.79 336.884 178.881 330.699 187.67C324.677 196.296 317.678 203.702 309.703 209.887C301.728 216.072 293.346 221.199 284.557 225.268C275.93 229.174 267.141 232.022 258.189 233.812C249.4 235.603 241.1 236.498 233.287 236.498L365.855 351H267.711L135.387 236.498H89.7324V173.021H233.287C241.262 172.37 248.505 170.743 255.016 168.139C261.689 165.372 267.385 161.71 272.105 157.152C276.988 152.595 280.732 147.143 283.336 140.795C285.94 134.285 287.242 126.879 287.242 118.578V78.5391C287.242 74.9583 286.754 72.2728 285.777 70.4824C284.964 68.5293 283.824 67.1458 282.359 66.332C281.057 65.3555 279.592 64.7858 277.965 64.623C276.5 64.4603 275.117 64.3789 273.814 64.3789H64.3418V351H0.865234V32.8848C0.865234 28.4902 1.67904 24.3398 3.30664 20.4336C4.93424 16.5273 7.13151 13.1094 9.89844 10.1797C12.8281 7.25 16.2461 4.97135 20.1523 3.34375C24.0586 1.71615 28.2904 0.902344 32.8477 0.902344H273.814C287.975 0.902344 299.938 3.50651 309.703 8.71484C319.469 13.7604 327.363 20.1895 333.385 28.002C339.57 35.6517 343.964 43.9525 346.568 52.9043C349.335 61.8561 350.719 70.2383 350.719 78.0508V118.578Z" fill="black"/>
<path d="M676.402 263.598C676.402 272.387 674.856 281.908 671.764 292.162C668.671 302.253 663.626 311.693 656.627 320.482C649.791 329.109 640.758 336.352 629.527 342.211C618.46 348.07 604.951 351 589 351H474.498C465.709 351 456.188 349.454 445.934 346.361C435.842 343.269 426.402 338.305 417.613 331.469C408.987 324.47 401.744 315.437 395.885 304.369C390.025 293.139 387.096 279.548 387.096 263.598C387.096 254.809 388.642 245.287 391.734 235.033C394.827 224.779 399.791 215.339 406.627 206.713C413.626 197.924 422.659 190.6 433.727 184.74C444.957 178.881 458.548 175.951 474.498 175.951H589V236.498H474.498C465.872 236.498 459.199 239.184 454.479 244.555C449.758 249.763 447.398 256.273 447.398 264.086C447.398 272.387 450.084 278.897 455.455 283.617C460.989 288.174 467.499 290.453 474.986 290.453H589C597.626 290.453 604.299 287.849 609.02 282.641C613.74 277.432 616.1 270.922 616.1 263.109V174.486C616.1 166.186 613.495 159.594 608.287 154.711C603.242 149.828 596.812 147.387 589 147.387H449.596V87.084H589C597.789 87.084 607.229 88.6302 617.32 91.7227C627.574 94.8151 637.014 99.8607 645.641 106.859C654.43 113.695 661.754 122.729 667.613 133.959C673.473 145.027 676.402 158.536 676.402 174.486V263.598Z" fill="black"/>
<path d="M966.197 351H902.721V175.951C902.721 167.65 900.523 161.384 896.129 157.152C891.734 152.758 885.224 150.561 876.598 150.561H794.078V351H730.602V118.578C730.602 114.184 731.415 110.115 733.043 106.371C734.671 102.465 736.949 99.1283 739.879 96.3613C742.809 93.4316 746.227 91.153 750.133 89.5254C754.039 87.8978 758.189 87.084 762.584 87.084H877.086C885.875 87.084 895.315 88.6302 905.406 91.7227C915.497 94.8151 925.1 99.7793 934.215 106.615V87.084H1020.15C1026.17 87.084 1032.52 87.8164 1039.2 89.2812C1045.87 90.5833 1052.46 92.6992 1058.97 95.6289C1065.64 98.5586 1071.99 102.383 1078.01 107.104C1084.04 111.661 1089.33 117.276 1093.88 123.949C1098.44 130.46 1102.1 138.028 1104.87 146.654C1107.64 155.281 1109.02 165.046 1109.02 175.951V351H1045.54V175.951C1045.54 167.65 1043.43 161.384 1039.2 157.152C1035.13 152.758 1028.78 150.561 1020.15 150.561H963.023C965.139 158.373 966.197 166.837 966.197 175.951V351Z" fill="black"/>
<path d="M1454.72 261.889C1454.72 272.794 1453.34 282.641 1450.57 291.43C1447.81 300.056 1444.14 307.706 1439.59 314.379C1435.03 320.889 1429.74 326.505 1423.72 331.225C1417.69 335.782 1411.35 339.525 1404.67 342.455C1398.16 345.385 1391.49 347.582 1384.65 349.047C1377.98 350.349 1371.63 351 1365.61 351H1251.11C1242.32 351 1232.72 349.454 1222.3 346.361C1211.88 343.269 1202.2 338.223 1193.25 331.225C1184.46 324.063 1177.05 314.867 1171.03 303.637C1165.17 292.243 1162.24 278.327 1162.24 261.889V175.951C1162.24 159.675 1165.17 145.922 1171.03 134.691C1177.05 123.298 1184.46 114.102 1193.25 107.104C1202.2 99.9421 1211.88 94.8151 1222.3 91.7227C1232.72 88.6302 1242.32 87.084 1251.11 87.084H1365.61C1381.89 87.084 1395.72 90.0137 1407.12 95.873C1418.51 101.732 1427.7 109.138 1434.7 118.09C1441.7 126.879 1446.75 136.482 1449.84 146.898C1453.1 157.315 1454.72 166.999 1454.72 175.951V261.889ZM1391.25 176.439C1391.25 167.65 1389.05 161.14 1384.65 156.908C1380.26 152.676 1373.91 150.561 1365.61 150.561H1251.6C1243.13 150.561 1236.71 152.758 1232.31 157.152C1227.92 161.384 1225.72 167.65 1225.72 175.951V261.889C1225.72 270.189 1227.92 276.537 1232.31 280.932C1236.71 285.326 1243.13 287.523 1251.6 287.523H1365.61C1374.24 287.523 1380.67 285.326 1384.9 280.932C1389.13 276.537 1391.25 270.189 1391.25 261.889V176.439Z" fill="black"/>
<path d="M1797.5 319.018C1797.5 323.575 1796.68 327.807 1795.05 331.713C1793.43 335.619 1791.15 339.037 1788.22 341.967C1785.45 344.734 1782.12 346.931 1778.21 348.559C1774.47 350.186 1770.4 351 1766 351H1622.45C1614.63 351 1606.25 350.105 1597.3 348.314C1588.51 346.524 1579.8 343.676 1571.18 339.77C1562.55 335.701 1554.17 330.655 1546.03 324.633C1538.06 318.448 1531.06 311.042 1525.04 302.416C1519.01 293.627 1514.13 283.536 1510.39 272.143C1506.81 260.749 1505.02 247.891 1505.02 233.568V87.084H1568.49V233.568C1568.49 241.869 1569.88 249.356 1572.64 256.029C1575.57 262.54 1579.48 268.155 1584.36 272.875C1589.24 277.595 1594.94 281.257 1601.45 283.861C1608.12 286.303 1615.29 287.523 1622.94 287.523H1734.02V87.084H1797.5V319.018Z" fill="black"/>
<path d="M2149.55 351H2086.07V204.516C2086.07 196.215 2084.61 188.809 2081.68 182.299C2078.91 175.626 2075.08 169.929 2070.2 165.209C2065.32 160.489 2059.54 156.908 2052.87 154.467C2046.36 151.863 2039.28 150.561 2031.63 150.561H1920.54V351H1857.07V118.578C1857.07 114.184 1857.88 110.115 1859.51 106.371C1861.14 102.465 1863.41 99.1283 1866.34 96.3613C1869.27 93.4316 1872.69 91.153 1876.6 89.5254C1880.5 87.8978 1884.65 87.084 1889.05 87.084H2032.12C2040.09 87.084 2048.47 87.9792 2057.26 89.7695C2066.21 91.5599 2075 94.4896 2083.63 98.5586C2092.42 102.465 2100.72 107.51 2108.53 113.695C2116.51 119.717 2123.51 127.123 2129.53 135.912C2135.71 144.538 2140.6 154.548 2144.18 165.941C2147.76 177.335 2149.55 190.193 2149.55 204.516V351Z" fill="black"/>
</svg>
